<svg width="30" height="30" viewBox="0 0 30 30" fill="none" xmlns="http://www.w3.org/2000/svg">
<g clip-path="url(#clip0_353_1359)">
<path fill-rule="evenodd" clip-rule="evenodd" d="M19.2501 23.75C19.2503 24.3807 19.012 24.9882 18.5832 25.4507C18.1543 25.9132 17.5665 26.1964 16.9376 26.2438L16.7501 26.25H14.2501C13.6193 26.2502 13.0118 26.012 12.5494 25.5831C12.0869 25.1543 11.8036 24.5664 11.7563 23.9375L11.7501 23.75H19.2501ZM15.5001 2.5C17.7688 2.49996 19.9488 3.38112 21.5803 4.95759C23.2119 6.53407 24.1673 8.68261 24.2451 10.95L24.2501 11.25V15.955L26.5276 20.51C26.627 20.7088 26.6767 20.9286 26.6725 21.1508C26.6684 21.373 26.6104 21.5908 26.5036 21.7857C26.3968 21.9806 26.2444 22.1467 26.0594 22.2698C25.8744 22.3929 25.6623 22.4693 25.4413 22.4925L25.2976 22.5H5.70256C5.48026 22.5001 5.26126 22.4462 5.06433 22.3431C4.8674 22.24 4.6984 22.0907 4.57183 21.9079C4.44525 21.7252 4.36486 21.5145 4.33756 21.2939C4.31026 21.0733 4.33685 20.8493 4.41505 20.6413L4.47255 20.51L6.75005 15.955V11.25C6.75005 8.92936 7.67193 6.70376 9.31287 5.06282C10.9538 3.42187 13.1794 2.5 15.5001 2.5ZM15.5001 5C13.8895 5.00009 12.3411 5.62193 11.1778 6.73583C10.0146 7.84972 9.3262 9.36969 9.25631 10.9788L9.25005 11.25V15.955C9.25007 16.265 9.19242 16.5723 9.08005 16.8612L8.9863 17.0738L7.5238 20H23.4776L22.0151 17.0725C21.8763 16.7953 21.7903 16.4948 21.7613 16.1863L21.7501 15.955V11.25C21.7501 9.5924 21.0916 8.00269 19.9195 6.83058C18.7474 5.65848 17.1577 5 15.5001 5Z" fill="white"/>
</g>
<defs>
<clipPath id="clip0_353_1359">
<rect width="30" height="30" fill="white" transform="translate(0.5)"/>
</clipPath>
</defs>
</svg>
