<svg width="31" height="31" viewBox="0 0 31 31" fill="none" xmlns="http://www.w3.org/2000/svg">
<g clip-path="url(#clip0_353_1299)">
<path d="M19.2501 23.875C19.2503 24.5057 19.012 25.1132 18.5832 25.5757C18.1543 26.0382 17.5665 26.3214 16.9376 26.3688L16.7501 26.375H14.2501C13.6193 26.3752 13.0118 26.137 12.5494 25.7081C12.0869 25.2793 11.8036 24.6914 11.7563 24.0625L11.7501 23.875H19.2501ZM15.5001 2.625C17.7688 2.62496 19.9488 3.50612 21.5803 5.08259C23.2119 6.65907 24.1673 8.80761 24.2451 11.075L24.2501 11.375V16.08L26.5276 20.635C26.627 20.8338 26.6767 21.0536 26.6725 21.2758C26.6684 21.498 26.6104 21.7158 26.5036 21.9107C26.3968 22.1056 26.2444 22.2717 26.0594 22.3948C25.8744 22.5179 25.6623 22.5943 25.4413 22.6175L25.2976 22.625H5.70256C5.48026 22.6251 5.26126 22.5712 5.06433 22.4681C4.8674 22.365 4.6984 22.2157 4.57183 22.0329C4.44525 21.8502 4.36486 21.6395 4.33756 21.4189C4.31026 21.1983 4.33685 20.9743 4.41505 20.7663L4.47255 20.635L6.75005 16.08V11.375C6.75005 9.05436 7.67193 6.82876 9.31287 5.18782C10.9538 3.54687 13.1794 2.625 15.5001 2.625Z" fill="white"/>
</g>
<defs>
<clipPath id="clip0_353_1299">
<rect width="30" height="30" fill="white" transform="translate(0.5 0.125)"/>
</clipPath>
</defs>
</svg>
