<svg width="30" height="33" viewBox="0 0 30 33" fill="none" xmlns="http://www.w3.org/2000/svg">
<path d="M2.5 11.0714C2.5 9.18579 2.5 8.24298 3.08579 7.6572C3.67157 7.07141 4.61438 7.07141 6.5 7.07141H23.5C25.3856 7.07141 26.3284 7.07141 26.9142 7.6572C27.5 8.24298 27.5 9.18579 27.5 11.0714V12.7678C27.5 13.2392 27.5 13.4749 27.3536 13.6214C27.2071 13.7678 26.9714 13.7678 26.5 13.7678H3.5C3.0286 13.7678 2.79289 13.7678 2.64645 13.6214C2.5 13.4749 2.5 13.2392 2.5 12.7678V11.0714Z" fill="white"/>
<path d="M2.5 25.8392C2.5 27.7249 2.5 28.6677 3.08579 29.2534C3.67157 29.8392 4.61438 29.8392 6.5 29.8392H23.5C25.3856 29.8392 26.3284 29.8392 26.9142 29.2534C27.5 28.6677 27.5 27.7249 27.5 25.8392V17.4464C27.5 16.975 27.5 16.7393 27.3536 16.5928C27.2071 16.4464 26.9714 16.4464 26.5 16.4464H3.5C3.0286 16.4464 2.79289 16.4464 2.64645 16.5928C2.5 16.7393 2.5 16.975 2.5 17.4464V25.8392Z" fill="white"/>
<path d="M8.75 4.39282L8.75 8.41068" stroke="white" stroke-width="2" stroke-linecap="round"/>
<path d="M21.25 4.39282L21.25 8.41068" stroke="white" stroke-width="2" stroke-linecap="round"/>
</svg>
