<svg width="18" height="19" viewBox="0 0 18 19" fill="none" xmlns="http://www.w3.org/2000/svg">
<rect y="0.260498" width="18" height="18" rx="8" fill="#3D4ABA"/>
<g clip-path="url(#clip0_8_386)">
<path d="M9 8.22339V6.64136" stroke="white" stroke-width="1.4" stroke-linecap="round" stroke-linejoin="round"/>
<path d="M9 5.37573V5.05933" stroke="white" stroke-width="1.4" stroke-linecap="round" stroke-linejoin="round"/>
<path d="M6.27539 6.24585L6.01172 6.00854" stroke="white" stroke-width="1.4" stroke-linecap="round" stroke-linejoin="round"/>
<path d="M9 9.64722C9.38833 9.64722 9.70312 9.3639 9.70312 9.0144C9.70312 8.66491 9.38833 8.38159 9 8.38159C8.61167 8.38159 8.29688 8.66491 8.29688 9.0144C8.29688 9.3639 8.61167 9.64722 9 9.64722Z" stroke="white" stroke-width="1.4" stroke-miterlimit="10"/>
<path d="M9 5.53394C8.23514 5.53394 7.48746 5.73806 6.85151 6.1205C6.21555 6.50294 5.71988 7.04651 5.42719 7.68249C5.13449 8.31846 5.0579 9.01827 5.20712 9.69341C5.35634 10.3686 5.72465 10.9887 6.26549 11.4755C6.80632 11.9622 7.49539 12.2937 8.24555 12.428C8.99571 12.5623 9.77327 12.4934 10.4799 12.2299C11.1865 11.9665 11.7905 11.5204 12.2155 10.948C12.6404 10.3757 12.8672 9.70278 12.8672 9.0144C12.8672 8.09133 12.4598 7.20606 11.7345 6.55334C11.0093 5.90063 10.0256 5.53394 9 5.53394Z" stroke="white" stroke-width="1.4" stroke-miterlimit="10"/>
</g>
<defs>
<clipPath id="clip0_8_386">
<rect width="11.25" height="10.125" fill="white" transform="translate(3.375 3.6355)"/>
</clipPath>
</defs>
</svg>
