<svg width="18" height="18" viewBox="0 0 18 18" fill="none" xmlns="http://www.w3.org/2000/svg">
<path fill-rule="evenodd" clip-rule="evenodd" d="M18 9C18 13.9706 13.9706 18 9 18C4.02944 18 0 13.9706 0 9C0 4.02944 4.02944 0 9 0C13.9706 0 18 4.02944 18 9ZM4.29289 13.7071C3.90237 13.3166 3.90237 12.6834 4.29289 12.2929L7.58579 9L4.29289 5.70711C3.90237 5.31658 3.90237 4.68342 4.29289 4.29289C4.68342 3.90237 5.31658 3.90237 5.70711 4.29289L9 7.58579L12.2929 4.29289C12.6834 3.90237 13.3166 3.90237 13.7071 4.29289C14.0976 4.68342 14.0976 5.31658 13.7071 5.70711L10.4142 9L13.7071 12.2929C14.0976 12.6834 14.0976 13.3166 13.7071 13.7071C13.3166 14.0976 12.6834 14.0976 12.2929 13.7071L9 10.4142L5.70711 13.7071C5.31658 14.0976 4.68342 14.0976 4.29289 13.7071Z" fill="#222222"/>
</svg>
