<svg width="21" height="21" viewBox="0 0 21 21" fill="none" xmlns="http://www.w3.org/2000/svg">
<path d="M15.299 7.33312L16.0573 6.58312C16.2143 6.4262 16.3024 6.21337 16.3024 5.99145C16.3024 5.76953 16.2143 5.5567 16.0573 5.39978C15.9004 5.24286 15.6876 5.15471 15.4657 5.15471C15.2438 5.15471 15.0309 5.24286 14.874 5.39978L14.124 6.15812C12.9561 5.25466 11.5214 4.76448 10.0448 4.76448C8.56831 4.76448 7.13355 5.25466 5.96568 6.15812L5.20735 5.39145C5.04932 5.23453 4.83543 5.14681 4.61273 5.14759C4.39003 5.14838 4.17677 5.23759 4.01985 5.39562C3.86293 5.55364 3.77521 5.76753 3.77599 5.99023C3.77677 6.21293 3.86599 6.4262 4.02401 6.58312L4.79068 7.34145C3.87653 8.50607 3.3805 9.94424 3.38235 11.4248C3.37962 12.4876 3.63107 13.5357 4.1157 14.4817C4.60033 15.4276 5.30411 16.244 6.16834 16.8626C7.03257 17.4813 8.0322 17.8844 9.08385 18.0383C10.1355 18.1922 11.2087 18.0924 12.214 17.7472C13.2192 17.402 14.1274 16.8215 14.8627 16.0541C15.598 15.2866 16.1392 14.3545 16.4411 13.3354C16.743 12.3164 16.7968 11.2399 16.5982 10.1957C16.3995 9.15161 15.9541 8.17012 15.299 7.33312ZM10.049 16.4248C9.06011 16.4248 8.09341 16.1315 7.27116 15.5821C6.44892 15.0327 5.80805 14.2518 5.42962 13.3382C5.05118 12.4246 4.95216 11.4192 5.14509 10.4493C5.33801 9.47943 5.81422 8.58851 6.51348 7.88925C7.21274 7.18999 8.10366 6.71378 9.07356 6.52086C10.0435 6.32793 11.0488 6.42695 11.9624 6.80539C12.8761 7.18382 13.657 7.82469 14.2064 8.64693C14.7558 9.46918 15.049 10.4359 15.049 11.4248C15.049 12.7509 14.5222 14.0226 13.5845 14.9603C12.6469 15.898 11.3751 16.4248 10.049 16.4248ZM8.38235 3.92478H11.7157C11.9367 3.92478 12.1487 3.83699 12.3049 3.68071C12.4612 3.52443 12.549 3.31246 12.549 3.09145C12.549 2.87044 12.4612 2.65848 12.3049 2.5022C12.1487 2.34592 11.9367 2.25812 11.7157 2.25812H8.38235C8.16133 2.25812 7.94937 2.34592 7.79309 2.5022C7.63681 2.65848 7.54901 2.87044 7.54901 3.09145C7.54901 3.31246 7.63681 3.52443 7.79309 3.68071C7.94937 3.83699 8.16133 3.92478 8.38235 3.92478ZM10.8823 8.92478C10.8823 8.70377 10.7945 8.49181 10.6383 8.33553C10.482 8.17925 10.27 8.09145 10.049 8.09145C9.828 8.09145 9.61604 8.17925 9.45976 8.33553C9.30348 8.49181 9.21568 8.70377 9.21568 8.92478V10.4998C9.02699 10.6686 8.89399 10.8906 8.83428 11.1367C8.77457 11.3827 8.79097 11.641 8.8813 11.8775C8.97163 12.114 9.13164 12.3175 9.34015 12.4611C9.54867 12.6046 9.79586 12.6815 10.049 12.6815C10.3022 12.6815 10.5494 12.6046 10.7579 12.4611C10.9664 12.3175 11.1264 12.114 11.2167 11.8775C11.3071 11.641 11.3235 11.3827 11.2637 11.1367C11.204 10.8906 11.071 10.6686 10.8823 10.4998V8.92478Z" fill="#636363"/>
</svg>
