<svg width="30" height="30" viewBox="0 0 30 30" fill="none" xmlns="http://www.w3.org/2000/svg">
<path d="M15 2.8125C8.26934 2.8125 2.8125 8.26934 2.8125 15C2.8125 21.7307 8.26934 27.1875 15 27.1875C21.7307 27.1875 27.1875 21.7307 27.1875 15C27.1875 8.26934 21.7307 2.8125 15 2.8125ZM20.625 16.875H15C14.7514 16.875 14.5129 16.7762 14.3371 16.6004C14.1613 16.4246 14.0625 16.1861 14.0625 15.9375V7.5C14.0625 7.25136 14.1613 7.0129 14.3371 6.83709C14.5129 6.66127 14.7514 6.5625 15 6.5625C15.2486 6.5625 15.4871 6.66127 15.6629 6.83709C15.8387 7.0129 15.9375 7.25136 15.9375 7.5V15H20.625C20.8736 15 21.1121 15.0988 21.2879 15.2746C21.4637 15.4504 21.5625 15.6889 21.5625 15.9375C21.5625 16.1861 21.4637 16.4246 21.2879 16.6004C21.1121 16.7762 20.8736 16.875 20.625 16.875Z" fill="white"/>
</svg>
